<?xml version="1.0" encoding="UTF-8"?>
<!-- Generator: Adobe Illustrator 16.0.0, SVG Export Plug-In . SVG Version: 6.00 Build 0)  -->
<!DOCTYPE svg PUBLIC "-//W3C//DTD SVG 1.1//EN" "http://www.w3.org/Graphics/SVG/1.1/DTD/svg11.dtd">
<svg version="1.1" id="Capa_1" xmlns="http://www.w3.org/2000/svg" xmlns:xlink="http://www.w3.org/1999/xlink" x="0px" y="0px" width="1500px" height="1500px" viewBox="-675 -675 1500 1500" enable-background="new -675 -675 1500 1500" xml:space="preserve">
<g>
	<g>
		<g opacity="0.8">
			
				<image overflow="visible" enable-background="new    " width="638" height="367" xlink:href="C1B0582DABC39DF5.png" transform="matrix(2.3689 0 0 2.3449 -530.8096 245.5566)">
			</image>
		</g>
		
			<linearGradient id="SVGID_1_" gradientUnits="userSpaceOnUse" x1="-468.1519" y1="655.2695" x2="535.6135" y2="-725.8497" gradientTransform="matrix(0.9841 -0.1777 -0.1777 -0.9841 73.544 88.8167)">
			<stop offset="0.0512" style="stop-color:#F9F9F9"/>
			<stop offset="0.1242" style="stop-color:#FBFBFB"/>
			<stop offset="0.4549" style="stop-color:#FEFEFE"/>
			<stop offset="0.6027" style="stop-color:#F5F5F4"/>
			<stop offset="0.7109" style="stop-color:#EBECEA"/>
			<stop offset="0.8467" style="stop-color:#E0DFDE"/>
			<stop offset="1" style="stop-color:#CECCCC"/>
		</linearGradient>
		<path fill="url(#SVGID_1_)" d="M635.352,562.285c3.949,21.863-10.572,42.826-32.465,46.773l-856.575,154.678    c-21.87,3.938-42.821-10.582-46.764-32.477L-508.795-422.395c-3.943-21.883,10.593-42.82,32.452-46.764L380.25-623.856    c21.873-3.943,42.807,10.579,46.764,32.462L635.352,562.285z"/>
	</g>
	<polygon fill="#EDEDED" points="-393.568,-290.969 355.914,-426.304 497.572,358.156 -251.917,493.492  "/>
	<g>
		<polygon fill="#C6C6C6" points="322.777,-470.056 -367.94,-345.977 -377.743,-400.555 312.98,-524.634   "/>
		<path fill="#C6C6C6" d="M-65.56,490.215c22.331,4.887,40.668,22.717,44.96,46.646c5.688,31.652-15.38,61.924-47.046,67.639    c-7.735,1.389-15.423,1.203-22.683-0.447l1.451-6.557c6.417,1.396,13.196,1.553,20.063,0.33    c27.991-4.986,46.614-31.777,41.58-59.752c-3.788-21.146-19.996-36.939-39.741-41.264L-65.56,490.215L-65.56,490.215z     M-95.931,629.875c1.033,0.641,2.212,1.086,3.463,1.311c2.813,0.455,5.543-0.303,7.61-1.912c1.809,1.932,4.36,3.193,7.202,3.133    c2.852,0,5.403-1.26,7.164-3.189c2.114,1.6,4.834,2.387,7.648,1.881c2.837-0.543,5.102-2.211,6.514-4.443    c2.313,1.23,5.175,1.531,7.847,0.523c2.673-0.98,4.646-3.025,5.631-5.461c2.502,0.807,5.354,0.592,7.818-0.844    c2.474-1.455,4.064-3.781,4.588-6.383c2.614,0.35,5.384-0.367,7.551-2.172c2.183-1.863,3.327-4.441,3.443-7.102    c2.644-0.098,5.224-1.26,7.033-3.471c1.819-2.193,2.513-4.938,2.125-7.586c2.604-0.545,4.927-2.174,6.357-4.619    c1.421-2.502,1.611-5.334,0.776-7.836c2.464-0.971,4.491-2.949,5.481-5.637c0.936-2.686,0.64-5.539-0.583-7.855    c2.223-1.408,3.881-3.727,4.371-6.539c0.485-2.803-0.311-5.539-1.921-7.596c1.95-1.803,3.172-4.365,3.163-7.217    c-0.01-2.832-1.242-5.412-3.22-7.158c1.609-2.074,2.385-4.832,1.886-7.625c-0.504-2.852-2.173-5.102-4.448-6.527    c1.251-2.328,1.539-5.17,0.534-7.818c-0.98-2.688-3.007-4.684-5.48-5.656c0.834-2.5,0.606-5.373-0.834-7.818    c-1.44-2.441-3.763-4.072-6.368-4.578c0.378-2.629-0.368-5.393-2.197-7.574c-1.823-2.164-4.417-3.328-7.081-3.426    c-0.097-2.637-1.271-5.217-3.453-7.041c-2.197-1.824-4.938-2.543-7.571-2.135c-0.549-2.619-2.178-4.947-4.637-6.373    c-2.463-1.426-5.325-1.648-7.828-0.785c-0.994-2.443-2.992-4.482-5.665-5.451c-2.672-0.988-5.509-0.66-7.847,0.58    c-0.752-1.219-1.814-2.277-3.075-3.055l-2.494,11.523c27.927,6.084,50.844,28.453,56.208,58.299    c7.09,39.566-19.222,77.475-58.821,84.594c-9.686,1.707-19.269,1.455-28.349-0.543L-95.931,629.875L-95.931,629.875z     M-87.341,590.375c5.515,1.205,11.354,1.359,17.232,0.33c24.041-4.324,40.052-27.334,35.711-51.35    c-3.289-18.158-17.184-31.723-34.14-35.426L-87.341,590.375z M-88.243,489.844c7.764-1.406,15.452-1.221,22.693,0.352    l-1.441,6.615c-6.392-1.379-13.206-1.592-20.029-0.33c-28.014,4.984-46.629,31.777-41.59,59.762    c3.783,21.137,19.982,36.947,39.732,41.254l-1.451,6.557c-22.32-4.85-40.639-22.699-44.97-46.607    C-140.958,525.793-119.89,495.508-88.243,489.844L-88.243,489.844z M-59.958,464.449c-1.02-0.639-2.164-1.086-3.443-1.338    c-2.813-0.447-5.573,0.34-7.62,1.959c-1.78-1.979-4.35-3.189-7.192-3.152c-2.853-0.02-5.404,1.232-7.149,3.172    c-2.12-1.58-4.841-2.365-7.648-1.881c-2.813,0.543-5.117,2.211-6.509,4.443c-2.314-1.234-5.175-1.516-7.857-0.525    c-2.663,0.969-4.646,3.018-5.621,5.492c-2.513-0.846-5.355-0.623-7.819,0.822c-2.449,1.445-4.05,3.793-4.598,6.412    c-2.6-0.389-5.364,0.32-7.565,2.174c-2.168,1.832-3.333,4.461-3.42,7.08c-2.634,0.096-5.204,1.281-7.042,3.451    c-1.809,2.176-2.522,4.949-2.124,7.568c-2.595,0.562-4.938,2.191-6.368,4.656c-1.431,2.482-1.61,5.316-0.786,7.816    c-2.455,0.99-4.477,2.971-5.451,5.666c-0.966,2.697-0.655,5.49,0.597,7.838c-2.246,1.396-3.905,3.715-4.395,6.529    c-0.465,2.801,0.291,5.576,1.959,7.613c-1.988,1.785-3.21,4.355-3.201,7.197c0.014,2.854,1.266,5.412,3.249,7.17    c-1.639,2.084-2.411,4.82-1.905,7.652c0.515,2.834,2.197,5.111,4.428,6.518c-1.243,2.289-1.529,5.17-0.524,7.828    c0.96,2.67,3.007,4.646,5.471,5.598c-0.805,2.551-0.597,5.373,0.844,7.836c1.441,2.445,3.769,4.074,6.378,4.619    c-0.378,2.59,0.33,5.383,2.177,7.535c1.857,2.184,4.448,3.338,7.101,3.465c0.077,2.6,1.25,5.18,3.438,7.023    c2.212,1.842,4.967,2.521,7.576,2.115c0.547,2.598,2.177,4.945,4.631,6.363c2.493,1.434,5.321,1.609,7.832,0.773    c0.976,2.465,2.973,4.482,5.675,5.434c2.663,0.988,5.5,0.697,7.838-0.525c0.761,1.203,1.828,2.271,3.061,3.055l2.521-11.551    c-27.932-6.074-50.818-28.4-56.202-58.26c-7.111-39.615,19.221-77.482,58.811-84.613c9.676-1.734,19.284-1.445,28.349,0.525    L-59.958,464.449L-59.958,464.449z M-68.538,503.93c-5.515-1.205-11.344-1.379-17.203-0.301    c-24.057,4.316-40.062,27.307-35.73,51.322c3.279,18.17,17.184,31.738,34.13,35.406L-68.538,503.93z"/>
		<polygon fill="#C6C6C6" points="339.588,-376.542 -351.121,-252.464 -353.74,-267.029 336.979,-391.106   "/>
		<polygon fill="#C6C6C6" points="344.312,-350.324 -346.416,-226.245 -349.03,-240.809 341.693,-364.893   "/>
		<polygon fill="#C6C6C6" points="349.027,-324.113 -341.692,-200.035 -344.312,-214.6 346.406,-338.678   "/>
		<polygon fill="#C6C6C6" points="353.701,-297.855 -337.013,-173.709 -339.63,-188.273 351.082,-312.425   "/>
		
			<rect x="-339.094" y="-224.312" transform="matrix(0.9842 -0.1768 0.1768 0.9842 38.5378 -1.3328)" fill="#C6C6C6" width="701.769" height="14.798"/>
		
			<rect x="-332.41" y="-175.52" transform="matrix(0.9842 -0.1768 0.1768 0.9842 28.0094 -21.9222)" fill="#C6C6C6" width="446.812" height="14.787"/>
		
			<rect x="-324.958" y="-145.654" transform="matrix(0.9842 -0.1768 0.1768 0.9842 24.8535 2.4046)" fill="#C6C6C6" width="701.755" height="14.797"/>
		
			<rect x="-320.25" y="-119.449" transform="matrix(0.9842 -0.1768 0.1768 0.9842 20.2929 3.6507)" fill="#C6C6C6" width="701.761" height="14.813"/>
		
			<rect x="-315.552" y="-93.21" transform="matrix(0.9842 -0.1768 0.1768 0.9842 15.7296 4.8961)" fill="#C6C6C6" width="701.78" height="14.788"/>
		<polygon fill="#C6C6C6" points="386.74,-114.364 -303.992,9.72 -306.611,-4.85 384.121,-128.928   "/>
		
			<rect x="-306.17" y="-40.71" transform="matrix(0.9842 -0.1769 0.1769 0.9842 6.5979 7.3867)" fill="#C6C6C6" width="701.791" height="14.802"/>
		<polygon fill="#C6C6C6" points="396.15,-61.911 -294.569,62.168 -297.188,47.604 393.529,-76.476   "/>
		
			<rect x="-296.677" y="11.655" transform="matrix(0.9842 -0.1768 0.1768 0.9842 -2.5155 9.883)" fill="#C6C6C6" width="701.758" height="14.805"/>
		<polygon fill="#C6C6C6" points="405.559,-9.463 -285.156,114.615 -287.774,100.057 402.949,-24.031   "/>
		<polygon fill="#C6C6C6" points="410.281,16.743 -280.436,140.816 -283.049,126.266 407.674,2.183   "/>
		
			<rect x="-279.591" y="123.678" transform="matrix(0.9842 -0.1768 0.1768 0.9842 -25.0226 -18.6661)" fill="#C6C6C6" width="324.674" height="14.801"/>
		<polygon fill="#C6C6C6" points="424.416,95.41 -266.292,219.484 -268.913,204.916 421.797,80.851   "/>
		<polygon fill="#C6C6C6" points="429.121,121.629 -261.594,245.713 -264.208,231.143 426.5,107.059   "/>
		<polygon fill="#C6C6C6" points="433.777,147.877 -256.953,272.02 -259.571,257.459 431.156,133.309   "/>
		
			<rect x="-258.991" y="221.424" transform="matrix(0.9842 -0.1768 0.1768 0.9842 -39.0103 19.8535)" fill="#C6C6C6" width="701.77" height="14.784"/>
		<polygon fill="#C6C6C6" points="230.395,238.535 -247.504,324.439 -250.124,309.859 227.777,223.965   "/>
		<polygon fill="#C6C6C6" points="452.682,252.725 -238.017,376.801 -240.636,362.23 450.062,238.146   "/>
		
			<rect x="-240.148" y="326.296" transform="matrix(0.9842 -0.1768 0.1768 0.9842 -57.2536 24.8351)" fill="#C6C6C6" width="701.763" height="14.793"/>
		
			<rect x="-235.506" y="352.558" transform="matrix(0.9842 -0.1769 0.1769 0.9842 -61.856 26.0879)" fill="#C6C6C6" width="701.781" height="14.804"/>
		
			<rect x="-226.858" y="423.102" transform="matrix(0.9842 -0.1769 0.1769 0.9842 -78.1464 -15.5938)" fill="#C6C6C6" width="200.647" height="14.804"/>
		<polygon fill="#C6C6C6" points="505.062,568.201 -185.651,692.344 -188.271,677.754 502.443,553.613   "/>
		<path fill="#C6C6C6" d="M280.834,497.797c0.35,0.098,0.738,0.215,1.107,0.33c3.336,1.186,3.725,3.646,3.229,6.559    c2.203-1.939,4.764-3.521,7.674-3.529c9.816-0.137,25.705,0.436,41.197,1.416c13.492,0.873,26.84,2.113,35.859,3.568    c9.09,1.455,26.928,5.859,41.207,12.242c10.098,4.52,18.623,10.193,21.756,16.938c0.592,1.299,0.467,2.723-0.203,3.879l0,0l0,0    c-0.426,0.775-1.086,1.328-1.871,1.688l0.018,0.018c-0.076,0-0.164,0.059-0.24,0.08c-0.699,0.25-1.494,0.338-2.252,0.213    c-0.639-0.039-1.455-0.115-2.365-0.225c-13.008-1.465-71.646-8.061-120.34-3.793c-11.465,1.049-23.02,2.35-34.242,4.055    l1.902-8.768c10.416-1.484,21.068-2.686,31.621-3.607c42.195-3.707,91.539,0.58,113.336,2.83    c-2.967-1.988-6.596-3.879-10.553-5.664c-13.582-6.051-30.518-10.205-39.131-11.602c-8.604-1.414-21.709-2.598-35.035-3.473    c-15.445-0.979-31.07-1.531-40.566-1.416c-1.174,0-3.57,2.676-5.453,4.754c-2.016,2.25-3.705,4.133-6.053,4.48    c-2.289,0.291-3.898-0.135-4.936-1.164l2.453-11.271c0.912,0.078,1.416,0.117,0.193-0.291c-0.057-0.018-0.076-0.039-0.117-0.057    L280.834,497.797z M143.598,491.475c-2.309,0.135-4.326-1.631-4.441-3.949c-0.166-2.279,1.609-4.277,3.928-4.414    c4.23-0.309,19.566-10.184,36.549-22.25c24.766-17.566,52.275-39.285,55.244-43.303l0,0c1.891-2.617,4.461-2.559,6.43-0.502    c1.582,1.629,1.582,4.219,0,5.818c-0.059,0.107-0.156,0.232-0.262,0.33c-1.047,3.803-3.24,9.039-5.936,15.51    c-6.15,14.754-15.442,37.025-24.289,58.832c7.547-11.756,14.695-21.049,18.701-21.09c3.648-0.057,5.744,2.232,5.801,7.51    c0,2.424-1.377,7.082-2.949,12.348c-2.133,7.131-4.676,15.451-4.656,15.512c0.631,0.541,0.506-2.834,4.82-7.781l0.098-0.115l0,0    c0,0,5.055-7.188,9.486-13.443c2.203-3.105,4.24-5.977,5.375-7.625c3.316-4.754,5.887-5.936,8.41-4.191    c2.986,2.076,1.688,5.238-0.232,9.973c-2.619,6.479-7.314,18.061-5.957,22.445c0.127,0.311,0.912,0.328,2.832-0.232    c2.098-0.68,7.246-5.578,11.088-9.197c3.686-3.531,6.539-6.205,9.322-5.258c1.32,0.486,2.221,1.125,2.678,2.057    c1.639-0.717,3.393-0.998,5.219-0.639l-1.805,8.168c-0.271-0.059-0.611,0.057-0.971,0.289c0.291,0.041,0.602,0.041,0.902,0.08    l-2.455,11.25c-0.861-0.852-1.367-2.133-1.59-3.686s0.076-3.287,0.504-5.043c-1.562,1.908-3.133,4.354-3.957,5.586    c-1.629,2.473-2.58,4.018-5.84,2.812l0.01-0.018c-1.91-0.699-2.832-1.844-2.832-3.531c-2.805,2.387-5.578,4.412-7.77,5.102    c-7.801,2.406-11.748-0.098-13.318-5.217c-0.67-2.174-0.689-4.832-0.242-7.76l-2.115,2.928c-0.154,0.254-0.311,0.504-0.504,0.736    c-8.342,9.604-13.455,11.369-16.627,8.615c-4.094-3.551-0.756-14.746,2.066-24.193c0.553-1.891,1.096-3.723,1.553-5.258    c-7.227,9.963-21.875,36.705-29.711,51.033c-1.941,3.539-3.551,6.488-5.104,8.604c-0.039,0.127-0.077,0.291-0.115,0.447    c-0.758,2.191-3.124,3.375-5.316,2.658c-2.668-0.932-3.58-2.814-2.504-5.744c9.934-27.781,32.672-82.334,44.252-110.135    c0.078-0.154,0.166-0.348,0.215-0.514c-11.369,9.266-27.801,21.844-43.089,32.699    C166.393,480.514,149.574,491.066,143.598,491.475L143.598,491.475z M271.396,541.217l1.891-8.75    c-19.244,2.764-37.801,6.598-53.835,11.689c-20.952,6.652-37.751,15.549-46.502,27.314c-1.396,1.834-1.028,4.453,0.835,5.83    c1.842,1.367,4.481,0.99,5.848-0.846c7.654-10.203,22.961-18.205,42.361-24.336C236.699,547.443,253.654,543.883,271.396,541.217z    "/>
	</g>
</g>
</svg>